<?xml version="1.0" ?><!DOCTYPE svg  PUBLIC '-//W3C//DTD SVG 1.1//EN'  'http://www.w3.org/Graphics/SVG/1.1/DTD/svg11.dtd'><svg enable-background="new 0 0 256 256" height="256px" id="Layer_1" version="1.1" viewBox="0 0 256 256" width="256px" xml:space="preserve" xmlns="http://www.w3.org/2000/svg" xmlns:xlink="http://www.w3.org/1999/xlink"><g><g>
<path clip-rule="evenodd" d="M54.006,35h109.467c3.57,0,6.384,3.077,5.836,7.017     l-11.522,113.452c-0.313,3.065-2.885,5.351-5.879,5.347l-35.74,0.004c-0.99,0-1.841-0.359-2.535-1.069     c-6.207-6.351-15.016-10.377-25.925-10.377c-10.617,0-20.877,4.042-29.14,10.675c-0.657,0.526-1.378,0.781-2.216,0.781     l-13.912,0.002c-3.57,0-6.385-3.077-5.835-7.018l2.284-22.478c0.185-1.834,1.707-3.216,3.538-3.216H71.61     c3.272,0,5.927-2.673,5.927-5.97c0-3.26-2.598-6-5.818-5.968l-54.196,0.567c-3.272,0-5.926-2.673-5.926-5.97     c0-3.295,2.653-5.968,5.926-5.968c29.102,0,58.099,0.343,87.167,0.343c3.272,0,5.926-2.673,5.926-5.97     c0-2.389-1.394-4.45-3.408-5.403H35.016c-3.272,0-5.927-2.673-5.927-5.97c0-3.295,2.654-5.968,5.927-5.968h26.731     c2.293-0.824,3.937-3.032,3.937-5.625c0-2.389-1.394-4.452-3.41-5.405H5.927C2.654,70.813,0,68.141,0,64.846     c0-3.297,2.654-5.97,5.927-5.97h71.122c2.292-0.824,3.935-3.03,3.935-5.623c0-3.295-2.654-5.968-5.927-5.968H51.36     c-1.043,0-1.939-0.402-2.639-1.183c-0.699-0.778-1.003-1.718-0.898-2.763l0.303-2.975C48.438,37.298,51.009,34.998,54.006,35     L54.006,35z" fill="#2DDE98" fill-rule="evenodd"/>
<path clip-rule="evenodd" d="M169.804,153.788l8.596-83.159     c0.104-3.203,2.716-5.766,5.921-5.766h56.764c7.804,0,7.804,11.938,0,11.938h-9.563l2.786,35.429     c0.225,2.861,2.367,5.111,5.196,5.456l11.3,1.373c3.316,0.4,5.58,3.294,5.144,6.907l-2.842,29.455     c-0.289,3.081-2.868,5.392-5.881,5.388l-18.212,0.008c-0.991,0-1.843-0.361-2.536-1.071     c-6.207-6.349-15.014-10.373-25.921-10.373c-9.634,0-18.976,3.33-26.796,8.902c-0.599,0.426-1.285,0.547-1.991,0.353     c-0.707-0.192-1.238-0.648-1.54-1.319C169.753,156.249,169.579,155.035,169.804,153.788L169.804,153.788z M222.122,108.369     l-2.48-31.567h-29.997l-3.083,29.712c-0.269,2.588,1.581,4.924,4.146,5.236l24.797,3.016c1.824,0.222,3.486-0.337,4.813-1.62     C221.645,111.866,222.267,110.216,222.122,108.369L222.122,108.369z M196.403,179.376c10.363,0,13.881,12.683,5.457,20.114     c-8.378,7.388-20.229,2.103-18.781-8.339C183.979,184.661,189.962,179.376,196.403,179.376L196.403,179.376z M198.901,161.312     c26.252,0,35.167,32.134,13.828,50.956c-21.229,18.724-51.254,5.326-47.587-21.122     C167.422,174.702,182.576,161.312,198.901,161.312L198.901,161.312z M83.554,179.376c10.363,0,13.883,12.683,5.458,20.114     c-8.379,7.388-20.229,2.103-18.783-8.339C71.13,184.661,77.112,179.376,83.554,179.376L83.554,179.376z M86.053,161.312     c26.252,0,35.167,32.134,13.828,50.956c-21.23,18.724-51.253,5.326-47.586-21.122C54.574,174.702,69.727,161.312,86.053,161.312     L86.053,161.312z M36.566,197.605h-4.079c-8.747,0-5.336-12.071-4.636-19.43c0.289-3.083,2.867-5.413,5.879-5.409h7.484     c1.255,0,2.335,0.601,3.006,1.667c0.671,1.071,0.744,2.309,0.206,3.452c-2.424,5.142-3.929,10.696-4.312,16.382     C39.988,196.148,38.44,197.605,36.566,197.605L36.566,197.605z M149.415,197.605h-22.863c-1.095,0-2.036-0.445-2.735-1.293     c-0.699-0.847-0.961-1.858-0.761-2.943c0.994-5.378,0.957-10.91-0.215-16.247c-0.24-1.096,0.003-2.142,0.7-3.016     c0.698-0.877,1.656-1.34,2.772-1.34h27.75c1.254,0,2.335,0.601,3.005,1.667c0.671,1.071,0.745,2.309,0.206,3.452     c-2.423,5.142-3.928,10.696-4.311,16.382C152.836,196.148,151.289,197.605,149.415,197.605L149.415,197.605z M242.705,197.605     h-3.304c-1.095,0-2.036-0.445-2.736-1.293c-0.698-0.847-0.962-1.86-0.76-2.943c0.993-5.38,0.96-10.904-0.214-16.247     c-0.243-1.096,0.002-2.14,0.7-3.016c0.694-0.875,1.654-1.34,2.771-1.34h4.786c8.746,0,5.338,12.071,4.636,19.43     C248.295,195.279,245.717,197.609,242.705,197.605L242.705,197.605z" fill="#3B4552" fill-rule="evenodd"/></g></g></svg>