<svg version="1.1" id="3x3" xmlns="http://www.w3.org/2000/svg" xmlns:xlink="http://www.w3.org/1999/xlink" x="0px" y="0px"
	 width="138px" height="138px" viewBox="0 0 138 138" enable-background="new 0 0 138 138" xml:space="preserve">
<path fill="#050F2C" d="M1.917,0.919v44.167h44V0.919H1.917z M43.875,42.938H4V3h39.875V42.938z"/>
<path fill="#050F2C" d="M47.104,0.919v44.167h44V0.919H47.104z M89.063,42.938H49.188V3h39.875V42.938z"/>
<path fill="#050F2C" d="M92.104,0.919v44.167h44V0.919H92.104z M134.063,42.938H94.188V3h39.875V42.938z"/>
<path fill="#050F2C" d="M2.011,46.502v44.166h44V46.502H2.011z M43.969,88.52H4.094V48.583h39.875V88.52z"/>
<path fill="#050F2C" d="M47.198,46.502v44.166h44V46.502H47.198z M89.156,88.52H49.281V48.583h39.875V88.52z"/>
<path fill="#050F2C" d="M92.198,46.502v44.166h44V46.502H92.198z M134.156,88.52H94.281V48.583h39.875V88.52z"/>
<path fill="#050F2C" d="M1.917,92.336v44.167h44V92.336H1.917z M43.875,134.354H4V94.417h39.875V134.354z"/>
<path fill="#050F2C" d="M47.104,92.336v44.167h44V92.336H47.104z M89.063,134.354H49.188V94.417h39.875V134.354z"/>
<path fill="#050F2C" d="M92.104,92.336v44.167h44V92.336H92.104z M134.063,134.354H94.188V94.417h39.875V134.354z"/>
</svg>