<?xml version="1.0" encoding="utf-8"?>
<!DOCTYPE svg PUBLIC "-//W3C//DTD SVG 1.1//EN" "http://www.w3.org/Graphics/SVG/1.1/DTD/svg11.dtd">
<svg version="1.1" id="Layer_1" xmlns="http://www.w3.org/2000/svg" xmlns:xlink="http://www.w3.org/1999/xlink" x="0px" y="0px"
	 width="400px" height="98px" viewBox="0 0 400 98" enable-background="new 0 0 400 98" xml:space="preserve">
<rect x="53.215" y="34.104" fill="#FFFFFF" width="22.677" height="22.678"/>
<rect x="27.538" y="59.781" fill="#FFFFFF" width="22.677" height="22.679"/>
<rect x="53.215" y="59.781" fill="#FFFFFF" width="22.677" height="22.678"/>
<path fill="#FFFFFF" d="M27.538,8.427v22.678h22.677V8.427H27.538z M47.666,28.556H30V10.889h17.667V28.556z"/>
<path fill="#FFFFFF" d="M53.215,8.427v22.678h22.677V8.427H53.215z M73.343,28.556H55.677V10.889h17.667V28.556z"/>
<path fill="#FFFFFF" d="M27.538,34.104v22.677h22.677V34.104H27.538z M47.666,54.232H30V36.566h17.667V54.232z"/>
<path fill="#FFFFFF" d="M1.86,34.104v22.677h22.677V34.104H1.86z M21.989,54.232H4.322V36.566h17.667V54.232z"/>
<path fill="#FFFFFF" d="M1.86,59.781v22.678h22.677V59.781H1.86z M21.989,79.91H4.322V62.244h17.667V79.91z"/>
<g>
	<path fill="#FFFFFF" d="M85.574,40.21c0-2.508,0.077-4.573,0.29-7.023c4.225-2.605,9.821-3.57,15.088-3.57
		c3.396,0,5.943,0.579,7.834,1.563c2.836-0.926,6.078-1.563,9.166-1.563c11.577,0,13.256,6.117,13.256,13.313v21.514h-11.23v-20.78
		c0-2.972-0.656-4.805-3.878-4.805c-0.733,0-1.602,0.097-2.334,0.328c0.173,1.196,0.231,2.45,0.231,3.743v21.514h-11.229v-20.78
		c0-2.72-0.598-4.805-3.319-4.805c-0.907,0-1.833,0.154-2.45,0.367c-0.154,1.389-0.212,3.068-0.212,4.612v20.606h-11.21V40.21z"/>
	<path fill="#FFFFFF" d="M137.176,53.407c0-6.289,2.799-10.052,10.111-11.306c3.164-0.54,5.673-0.637,8.432-0.752
		c0-2.181-1.313-2.644-4.11-2.644c-4.225,0-9.185,0.521-12.542,0.946l-0.926-8.586c3.416-0.617,8.914-1.447,14.009-1.447
		c7.892,0,14.567,2.315,14.567,11.577v13.12c0,2.508-0.078,4.573-0.29,7.024c-4.284,2.643-9.57,3.569-15.339,3.569
		C141.17,64.908,137.176,61.165,137.176,53.407z M155.72,48.758c-1.583,0.135-3.357,0.27-4.804,0.637
		c-1.814,0.464-2.664,1.158-2.664,3.897c0,2.123,1.389,2.837,3.647,2.837c1.197,0,2.392-0.058,3.608-0.386
		c0.154-1.391,0.213-3.068,0.213-4.612V48.758z"/>
	<path fill="#FFFFFF" d="M188.419,64.136c-10.786,0-15.861-4.167-15.861-17.25c0-13.217,5.364-17.269,16.806-17.269
		c4.997,0,10.632,1.1,14.548,3.57c0.213,2.45,0.29,4.515,0.29,7.023v25.565c0,9.437-6.811,11.79-14.819,11.79
		c-5.287,0-11.655-1.023-15.031-1.679l0.907-8.509c3.281,0.443,8.76,1.062,12.562,1.062c3.241,0,5.054-1.506,5.054-4.593
		C191.448,64.04,189.808,64.136,188.419,64.136z M192.875,43.703c0-1.544-0.057-3.222-0.212-4.611
		c-0.848-0.251-2.103-0.386-3.299-0.386c-5.017,0-5.5,4.534-5.5,8.181c0,4.36,0.29,8.104,6.367,8.104
		c0.869,0,1.873-0.116,2.643-0.289V43.703z"/>
	<path fill="#FFFFFF" d="M211.699,40.21c0-2.508,0.077-4.573,0.29-7.023c4.284-2.644,9.956-3.57,15.089-3.57
		c13.005,0,14.567,5.306,14.567,13.313v21.514h-11.229v-20.8c0-3.435-0.696-4.785-4.149-4.804c-1.156,0-2.334,0.154-3.146,0.386
		c-0.153,1.389-0.212,3.068-0.212,4.612v20.606h-11.211V40.21z"/>
	<path fill="#FFFFFF" d="M247.794,47.253c0-12.464,4.032-17.636,15.706-17.636c12.909,0,15.339,6.734,15.339,17.481
		c0,1.061-0.058,2.161-0.135,3.222c-3.857,0.754-10.226,1.429-14.895,1.719l-4.786,0.289c0.136,2.623,1.698,3.377,5.808,3.377
		c4.746,0,8.991-0.503,12.523-0.927l0.945,8.663c-3.415,0.599-8.683,1.467-15.455,1.467C250.92,64.908,247.794,57.44,247.794,47.253
		z M262.323,44.339c1.64-0.097,3.956-0.29,5.19-0.463c0.038-0.251,0.058-0.579,0.058-0.83c0-2.972-1.101-4.554-4.071-4.554
		c-4.264,0-4.805,2.547-4.805,6.039L262.323,44.339z"/>
	<path fill="#FFFFFF" d="M306.984,64.117c-2.335,0.443-5.037,0.791-7.409,0.791c-7.815,0-11.133-3.474-11.133-10.343V38.917h-5.152
		v-8.837h5.152v-7.873l11.21-1.833v9.706h6.387v8.837h-6.387v14.201c0,1.813,0.771,3.146,2.951,3.146
		c1.101,0,2.259-0.059,3.493-0.174L306.984,64.117z"/>
	<path fill="#FFFFFF" d="M310.818,47.253c0-12.716,4.131-17.636,15.61-17.636c11.5,0,15.63,4.92,15.63,17.636
		c0,12.793-4.13,17.655-15.63,17.655C314.949,64.908,310.818,60.046,310.818,47.253z M330.789,47.253
		c0-6.618-0.713-8.374-4.36-8.374c-3.628,0-4.341,1.756-4.341,8.374c0,6.676,0.694,8.374,4.341,8.374
		C330.096,55.627,330.789,53.929,330.789,47.253z"/>
	<path fill="#FFFFFF" d="M360.4,22.054c0,4.052-1.64,5.711-6.386,5.711c-4.786,0-6.387-1.66-6.387-5.711
		c0-4.052,1.601-5.711,6.387-5.711C358.761,16.342,360.4,18.001,360.4,22.054z M348.341,64.444V30.081h11.404v34.364H348.341z"/>
	<path fill="#FFFFFF" d="M387.294,16.805h11.325v37.509c0,2.508-0.077,4.573-0.289,7.024c-3.916,2.47-9.552,3.569-14.549,3.569
		c-11.827,0-16.805-4.052-16.805-17.655c0-13.468,5.073-17.636,15.859-17.636c1.391,0,3.029,0.097,4.458,0.289V16.805z
		 M384.65,38.763c-6.079,0-6.368,3.744-6.368,8.49c0,4.032,0.098,8.566,5.499,8.566c1.196,0,2.451-0.135,3.3-0.385
		c0.153-1.391,0.213-3.068,0.213-4.612v-11.77C386.521,38.879,385.519,38.763,384.65,38.763z"/>
</g>
</svg>
